<?xml version='1.0' encoding='UTF-8' standalone='no'?>
<svg xmlns:freecad="http://www.freecadweb.org/wiki/index.php?title=Svg_Namespace" height="210mm" viewBox="0 0 2970 2100" xmlns:dc="http://purl.org/dc/elements/1.1/" xmlns:inkscape="http://www.inkscape.org/namespaces/inkscape" xmlns:rdf="http://www.w3.org/1999/02/22-rdf-syntax-ns#" width="297mm" xmlns:xlink="http://www.w3.org/1999/xlink" version="1.2" xmlns="http://www.w3.org/2000/svg" xmlns:svg="http://www.w3.org/2000/svg" xmlns:sodipodi="http://sodipodi.sourceforge.net/DTD/sodipodi-0.dtd" xmlns:cc="http://creativecommons.org/ns#" baseProfile="tiny">
 <title>FreeCAD SVG Export</title>
 <desc>Drawing page: Page exported from FreeCAD document: loraPy04132022</desc>
 <defs/>
 <g inkscape:groupmode="layer" id="Page" inkscape:label="TechDraw">
  <g stroke-linecap="square" stroke-linejoin="bevel" stroke-width="1" id="DrawingContent" stroke="black" fill="none" fill-rule="evenodd">
   <g fill-opacity="1" font-size="31.75" font-style="normal" transform="matrix(1,0,0,1,1485,1050)" stroke="none" font-weight="400" fill="#ffffff" font-family="Sans Serif">
    <path d="M-300,150 L-80,150 L-80,500 L775,500 L800,500 L800,394 L775,394 L100,394 L100,94 L775,94 L800,94 L800,0 L775,0 L-50,0 L-300,0 L-300,-360 L-50,-360 L-50,-500 L-775,-500 L-800,-500 L-800,-362 L-775,-362 L-450,-362 L-450,-2 L-775,-2 L-800,-2 L-800,144 L-775,144 L-450,144 L-450,394 L-775,394 L-800,394 L-800,500 L-775,500 L-300,500 L-300,150" vector-effect="non-scaling-stroke" fill-rule="evenodd"/>
   </g>
   <g fill-opacity="1" font-size="31.75" font-style="normal" transform="matrix(1,0,0,1,1485,1050)" stroke="none" font-weight="400" fill="#ffffff" font-family="Sans Serif">
    <path d="M-300,150 L-80,150 L-80,500 L775,500 L775,394 L100,394 L100,94 L775,94 L775,0 L-50,0 L-300,0 L-300,-360 L-50,-360 L-50,-500 L-775,-500 L-775,-362 L-450,-362 L-450,-2 L-775,-2 L-775,144 L-450,144 L-450,394 L-775,394 L-775,500 L-300,500 L-300,150" vector-effect="non-scaling-stroke" fill-rule="evenodd"/>
   </g>
   <g fill-opacity="1" font-size="31.75" font-style="normal" transform="matrix(1,0,0,1,1485,1050)" stroke="none" font-weight="400" fill="#ffffff" font-family="Sans Serif">
    <path d="M-800,144 L-775,144 L-775,-2 L-800,-2 L-800,144" vector-effect="non-scaling-stroke" fill-rule="evenodd"/>
   </g>
   <g fill-opacity="1" font-size="31.75" font-style="normal" transform="matrix(1,0,0,1,1485,1050)" stroke="none" font-weight="400" fill="#ffffff" font-family="Sans Serif">
    <path d="M-800,-362 L-775,-362 L-775,-500 L-800,-500 L-800,-362" vector-effect="non-scaling-stroke" fill-rule="evenodd"/>
   </g>
   <g fill-opacity="1" font-size="31.75" font-style="normal" transform="matrix(1,0,0,1,1485,1050)" stroke="none" font-weight="400" fill="#ffffff" font-family="Sans Serif">
    <path d="M775,500 L800,500 L800,394 L775,394 L775,500" vector-effect="non-scaling-stroke" fill-rule="evenodd"/>
   </g>
   <g fill-opacity="1" font-size="31.75" font-style="normal" transform="matrix(1,0,0,1,1485,1050)" stroke="none" font-weight="400" fill="#ffffff" font-family="Sans Serif">
    <path d="M-800,500 L-775,500 L-775,394 L-800,394 L-800,500" vector-effect="non-scaling-stroke" fill-rule="evenodd"/>
   </g>
   <g fill-opacity="1" font-size="31.75" font-style="normal" transform="matrix(1,0,0,1,1485,1050)" stroke="none" font-weight="400" fill="#ffffff" font-family="Sans Serif">
    <path d="M775,94 L800,94 L800,0 L775,0 L775,94" vector-effect="non-scaling-stroke" fill-rule="evenodd"/>
   </g>
   <g fill-opacity="1" font-size="31.75" font-style="normal" transform="matrix(1,0,0,1,1485,1050)" stroke="none" font-weight="400" fill="#ffffff" font-family="Sans Serif">
    <path d="M-690,65 C-690,76.0457 -698.954,85 -710,85 C-721.046,85 -730,76.0457 -730,65 C-730,53.9543 -721.046,45 -710,45 C-698.954,45 -690,53.9543 -690,65 " vector-effect="non-scaling-stroke" fill-rule="evenodd"/>
   </g>
   <g fill-opacity="1" font-size="31.75" font-style="normal" transform="matrix(1,0,0,1,1485,1050)" stroke="none" font-weight="400" fill="#ffffff" font-family="Sans Serif">
    <path d="M-110,-425 C-110,-413.954 -118.954,-405 -130,-405 C-141.046,-405 -150,-413.954 -150,-425 C-150,-436.046 -141.046,-445 -130,-445 C-118.954,-445 -110,-436.046 -110,-425 " vector-effect="non-scaling-stroke" fill-rule="evenodd"/>
   </g>
   <g fill-opacity="1" font-size="31.75" font-style="normal" transform="matrix(1,0,0,1,1485,1050)" stroke="none" font-weight="400" fill="#ffffff" font-family="Sans Serif">
    <path d="M-110,65 C-110,76.0457 -118.954,85 -130,85 C-141.046,85 -150,76.0457 -150,65 C-150,53.9543 -141.046,45 -130,45 C-118.954,45 -110,53.9543 -110,65 " vector-effect="non-scaling-stroke" fill-rule="evenodd"/>
   </g>
   <g fill-opacity="1" font-size="31.75" font-style="normal" transform="matrix(1,0,0,1,1485,1050)" stroke="none" font-weight="400" fill="#ffffff" font-family="Sans Serif">
    <path d="M-690,-425 C-690,-413.954 -698.954,-405 -710,-405 C-721.046,-405 -730,-413.954 -730,-425 C-730,-436.046 -721.046,-445 -710,-445 C-698.954,-445 -690,-436.046 -690,-425 " vector-effect="non-scaling-stroke" fill-rule="evenodd"/>
   </g>
   <g fill-opacity="1" font-size="31.75" font-style="normal" transform="matrix(1,0,0,1,1485,1050)" stroke="none" font-weight="400" fill="#ffffff" font-family="Sans Serif">
    <path d="M6,190 C6,198.837 -1.16344,206 -10,206 C-18.8366,206 -26,198.837 -26,190 C-26,181.163 -18.8366,174 -10,174 C-1.16344,174 6,181.163 6,190 " vector-effect="non-scaling-stroke" fill-rule="evenodd"/>
   </g>
   <g fill-opacity="1" font-size="31.75" font-style="normal" transform="matrix(1,0,0,1,1485,1050)" stroke="none" font-weight="400" fill="#ffffff" font-family="Sans Serif">
    <path d="M6,360 C6,368.837 -1.16344,376 -10,376 C-18.8366,376 -26,368.837 -26,360 C-26,351.163 -18.8366,344 -10,344 C-1.16344,344 6,351.163 6,360 " vector-effect="non-scaling-stroke" fill-rule="evenodd"/>
   </g>
   <g fill-opacity="1" font-size="31.75" font-style="normal" transform="matrix(1,0,0,1,1485,1050)" stroke="none" font-weight="400" fill="#ffffff" font-family="Sans Serif">
    <path d="M-344,190 C-344,198.837 -351.163,206 -360,206 C-368.837,206 -376,198.837 -376,190 C-376,181.163 -368.837,174 -360,174 C-351.163,174 -344,181.163 -344,190 " vector-effect="non-scaling-stroke" fill-rule="evenodd"/>
   </g>
   <g fill-opacity="1" font-size="31.75" font-style="normal" transform="matrix(1,0,0,1,1485,1050)" stroke="none" font-weight="400" fill="#ffffff" font-family="Sans Serif">
    <path d="M-344,360 C-344,368.837 -351.163,376 -360,376 C-368.837,376 -376,368.837 -376,360 C-376,351.163 -368.837,344 -360,344 C-351.163,344 -344,351.163 -344,360 " vector-effect="non-scaling-stroke" fill-rule="evenodd"/>
   </g>
   <g stroke-opacity="1" stroke-linecap="round" font-size="31.75" stroke-linejoin="bevel" font-style="normal" stroke-width="7" transform="matrix(1,0,0,1,1485,1050)" stroke="#000000" font-weight="400" fill="none" font-family="Sans Serif">
    <path d="M-800,500 L-800,394" vector-effect="none" fill-rule="evenodd"/>
   </g>
   <g stroke-opacity="1" stroke-linecap="round" font-size="31.75" stroke-linejoin="bevel" font-style="normal" stroke-width="7" transform="matrix(1,0,0,1,1485,1050)" stroke="#000000" font-weight="400" fill="none" font-family="Sans Serif">
    <path d="M-800,500 L-775,500" vector-effect="none" fill-rule="evenodd"/>
   </g>
   <g stroke-opacity="1" stroke-linecap="round" font-size="31.75" stroke-linejoin="bevel" font-style="normal" stroke-width="7" transform="matrix(1,0,0,1,1485,1050)" stroke="#000000" font-weight="400" fill="none" font-family="Sans Serif">
    <path d="M-800,394 L-775,394" vector-effect="none" fill-rule="evenodd"/>
   </g>
   <g stroke-opacity="1" stroke-linecap="round" font-size="31.75" stroke-linejoin="bevel" font-style="normal" stroke-width="7" transform="matrix(1,0,0,1,1485,1050)" stroke="#000000" font-weight="400" fill="none" font-family="Sans Serif">
    <path d="M-775,394 L-450,394" vector-effect="none" fill-rule="evenodd"/>
   </g>
   <g stroke-opacity="1" stroke-linecap="round" font-size="31.75" stroke-linejoin="bevel" font-style="normal" stroke-width="7" transform="matrix(1,0,0,1,1485,1050)" stroke="#000000" font-weight="400" fill="none" font-family="Sans Serif">
    <path d="M-775,500 L-775,394" vector-effect="none" fill-rule="evenodd"/>
   </g>
   <g stroke-opacity="1" stroke-linecap="round" font-size="31.75" stroke-linejoin="bevel" font-style="normal" stroke-width="7" transform="matrix(1,0,0,1,1485,1050)" stroke="#000000" font-weight="400" fill="none" font-family="Sans Serif">
    <path d="M-450,144 L-450,394" vector-effect="none" fill-rule="evenodd"/>
   </g>
   <g stroke-opacity="1" stroke-linecap="round" font-size="31.75" stroke-linejoin="bevel" font-style="normal" stroke-width="7" transform="matrix(1,0,0,1,1485,1050)" stroke="#000000" font-weight="400" fill="none" font-family="Sans Serif">
    <path d="M-775,500 L-300,500" vector-effect="none" fill-rule="evenodd"/>
   </g>
   <g stroke-opacity="1" stroke-linecap="round" font-size="31.75" stroke-linejoin="bevel" font-style="normal" stroke-width="7" transform="matrix(1,0,0,1,1485,1050)" stroke="#000000" font-weight="400" fill="none" font-family="Sans Serif">
    <path d="M-300,150 L-300,500" vector-effect="none" fill-rule="evenodd"/>
   </g>
   <g stroke-opacity="1" stroke-linecap="round" font-size="31.75" stroke-linejoin="bevel" font-style="normal" stroke-width="7" transform="matrix(1,0,0,1,1485,1050)" stroke="#000000" font-weight="400" fill="none" font-family="Sans Serif">
    <path d="M-300,150 L-80,150" vector-effect="none" fill-rule="evenodd"/>
   </g>
   <g stroke-opacity="1" stroke-linecap="round" font-size="31.75" stroke-linejoin="bevel" font-style="normal" stroke-width="7" transform="matrix(1,0,0,1,1485,1050)" stroke="#000000" font-weight="400" fill="none" font-family="Sans Serif">
    <path d="M-80,150 L-80,500" vector-effect="none" fill-rule="evenodd"/>
   </g>
   <g stroke-opacity="1" stroke-linecap="round" font-size="31.75" stroke-linejoin="bevel" font-style="normal" stroke-width="7" transform="matrix(1,0,0,1,1485,1050)" stroke="#000000" font-weight="400" fill="none" font-family="Sans Serif">
    <path d="M-80,500 L775,500" vector-effect="none" fill-rule="evenodd"/>
   </g>
   <g stroke-opacity="1" stroke-linecap="round" font-size="31.75" stroke-linejoin="bevel" font-style="normal" stroke-width="7" transform="matrix(1,0,0,1,1485,1050)" stroke="#000000" font-weight="400" fill="none" font-family="Sans Serif">
    <path d="M775,500 L775,394" vector-effect="none" fill-rule="evenodd"/>
   </g>
   <g stroke-opacity="1" stroke-linecap="round" font-size="31.75" stroke-linejoin="bevel" font-style="normal" stroke-width="7" transform="matrix(1,0,0,1,1485,1050)" stroke="#000000" font-weight="400" fill="none" font-family="Sans Serif">
    <path d="M100,394 L775,394" vector-effect="none" fill-rule="evenodd"/>
   </g>
   <g stroke-opacity="1" stroke-linecap="round" font-size="31.75" stroke-linejoin="bevel" font-style="normal" stroke-width="7" transform="matrix(1,0,0,1,1485,1050)" stroke="#000000" font-weight="400" fill="none" font-family="Sans Serif">
    <path d="M100,94 L100,394" vector-effect="none" fill-rule="evenodd"/>
   </g>
   <g stroke-opacity="1" stroke-linecap="round" font-size="31.75" stroke-linejoin="bevel" font-style="normal" stroke-width="7" transform="matrix(1,0,0,1,1485,1050)" stroke="#000000" font-weight="400" fill="none" font-family="Sans Serif">
    <path d="M100,94 L775,94" vector-effect="none" fill-rule="evenodd"/>
   </g>
   <g stroke-opacity="1" stroke-linecap="round" font-size="31.75" stroke-linejoin="bevel" font-style="normal" stroke-width="7" transform="matrix(1,0,0,1,1485,1050)" stroke="#000000" font-weight="400" fill="none" font-family="Sans Serif">
    <path d="M775,94 L775,0" vector-effect="none" fill-rule="evenodd"/>
   </g>
   <g stroke-opacity="1" stroke-linecap="round" font-size="31.75" stroke-linejoin="bevel" font-style="normal" stroke-width="7" transform="matrix(1,0,0,1,1485,1050)" stroke="#000000" font-weight="400" fill="none" font-family="Sans Serif">
    <path d="M-50,0 L775,0" vector-effect="none" fill-rule="evenodd"/>
   </g>
   <g stroke-opacity="1" stroke-linecap="round" font-size="31.75" stroke-linejoin="bevel" font-style="normal" stroke-width="7" transform="matrix(1,0,0,1,1485,1050)" stroke="#000000" font-weight="400" fill="none" font-family="Sans Serif">
    <path d="M-300,0 L-50,0" vector-effect="none" fill-rule="evenodd"/>
   </g>
   <g stroke-opacity="1" stroke-linecap="round" font-size="31.75" stroke-linejoin="bevel" font-style="normal" stroke-width="7" transform="matrix(1,0,0,1,1485,1050)" stroke="#000000" font-weight="400" fill="none" font-family="Sans Serif">
    <path d="M-300,-360 L-300,0" vector-effect="none" fill-rule="evenodd"/>
   </g>
   <g stroke-opacity="1" stroke-linecap="round" font-size="31.75" stroke-linejoin="bevel" font-style="normal" stroke-width="7" transform="matrix(1,0,0,1,1485,1050)" stroke="#000000" font-weight="400" fill="none" font-family="Sans Serif">
    <path d="M-300,-360 L-50,-360" vector-effect="none" fill-rule="evenodd"/>
   </g>
   <g stroke-opacity="1" stroke-linecap="round" font-size="31.75" stroke-linejoin="bevel" font-style="normal" stroke-width="7" transform="matrix(1,0,0,1,1485,1050)" stroke="#000000" font-weight="400" fill="none" font-family="Sans Serif">
    <path d="M-50,-500 L-50,-360" vector-effect="none" fill-rule="evenodd"/>
   </g>
   <g stroke-opacity="1" stroke-linecap="round" font-size="31.75" stroke-linejoin="bevel" font-style="normal" stroke-width="7" transform="matrix(1,0,0,1,1485,1050)" stroke="#000000" font-weight="400" fill="none" font-family="Sans Serif">
    <path d="M-775,-500 L-50,-500" vector-effect="none" fill-rule="evenodd"/>
   </g>
   <g stroke-opacity="1" stroke-linecap="round" font-size="31.75" stroke-linejoin="bevel" font-style="normal" stroke-width="7" transform="matrix(1,0,0,1,1485,1050)" stroke="#000000" font-weight="400" fill="none" font-family="Sans Serif">
    <path d="M-775,-362 L-775,-500" vector-effect="none" fill-rule="evenodd"/>
   </g>
   <g stroke-opacity="1" stroke-linecap="round" font-size="31.75" stroke-linejoin="bevel" font-style="normal" stroke-width="7" transform="matrix(1,0,0,1,1485,1050)" stroke="#000000" font-weight="400" fill="none" font-family="Sans Serif">
    <path d="M-775,-362 L-450,-362" vector-effect="none" fill-rule="evenodd"/>
   </g>
   <g stroke-opacity="1" stroke-linecap="round" font-size="31.75" stroke-linejoin="bevel" font-style="normal" stroke-width="7" transform="matrix(1,0,0,1,1485,1050)" stroke="#000000" font-weight="400" fill="none" font-family="Sans Serif">
    <path d="M-450,-362 L-450,-2" vector-effect="none" fill-rule="evenodd"/>
   </g>
   <g stroke-opacity="1" stroke-linecap="round" font-size="31.75" stroke-linejoin="bevel" font-style="normal" stroke-width="7" transform="matrix(1,0,0,1,1485,1050)" stroke="#000000" font-weight="400" fill="none" font-family="Sans Serif">
    <path d="M-775,-2 L-450,-2" vector-effect="none" fill-rule="evenodd"/>
   </g>
   <g stroke-opacity="1" stroke-linecap="round" font-size="31.75" stroke-linejoin="bevel" font-style="normal" stroke-width="7" transform="matrix(1,0,0,1,1485,1050)" stroke="#000000" font-weight="400" fill="none" font-family="Sans Serif">
    <path d="M-775,144 L-775,-2" vector-effect="none" fill-rule="evenodd"/>
   </g>
   <g stroke-opacity="1" stroke-linecap="round" font-size="31.75" stroke-linejoin="bevel" font-style="normal" stroke-width="7" transform="matrix(1,0,0,1,1485,1050)" stroke="#000000" font-weight="400" fill="none" font-family="Sans Serif">
    <path d="M-775,144 L-450,144" vector-effect="none" fill-rule="evenodd"/>
   </g>
   <g stroke-opacity="1" stroke-linecap="round" font-size="31.75" stroke-linejoin="bevel" font-style="normal" stroke-width="7" transform="matrix(1,0,0,1,1485,1050)" stroke="#000000" font-weight="400" fill="none" font-family="Sans Serif">
    <path d="M-690,65 C-690,76.0457 -698.954,85 -710,85 C-721.046,85 -730,76.0457 -730,65 C-730,53.9543 -721.046,45 -710,45 C-698.954,45 -690,53.9543 -690,65 " vector-effect="none" fill-rule="evenodd"/>
   </g>
   <g stroke-opacity="1" stroke-linecap="round" font-size="31.75" stroke-linejoin="bevel" font-style="normal" stroke-width="7" transform="matrix(1,0,0,1,1485,1050)" stroke="#000000" font-weight="400" fill="none" font-family="Sans Serif">
    <path d="M-690,-425 C-690,-413.954 -698.954,-405 -710,-405 C-721.046,-405 -730,-413.954 -730,-425 C-730,-436.046 -721.046,-445 -710,-445 C-698.954,-445 -690,-436.046 -690,-425 " vector-effect="none" fill-rule="evenodd"/>
   </g>
   <g stroke-opacity="1" stroke-linecap="round" font-size="31.75" stroke-linejoin="bevel" font-style="normal" stroke-width="7" transform="matrix(1,0,0,1,1485,1050)" stroke="#000000" font-weight="400" fill="none" font-family="Sans Serif">
    <path d="M-344,360 C-344,368.837 -351.163,376 -360,376 C-368.837,376 -376,368.837 -376,360 C-376,351.163 -368.837,344 -360,344 C-351.163,344 -344,351.163 -344,360 " vector-effect="none" fill-rule="evenodd"/>
   </g>
   <g stroke-opacity="1" stroke-linecap="round" font-size="31.75" stroke-linejoin="bevel" font-style="normal" stroke-width="7" transform="matrix(1,0,0,1,1485,1050)" stroke="#000000" font-weight="400" fill="none" font-family="Sans Serif">
    <path d="M-344,190 C-344,198.837 -351.163,206 -360,206 C-368.837,206 -376,198.837 -376,190 C-376,181.163 -368.837,174 -360,174 C-351.163,174 -344,181.163 -344,190 " vector-effect="none" fill-rule="evenodd"/>
   </g>
   <g stroke-opacity="1" stroke-linecap="round" font-size="31.75" stroke-linejoin="bevel" font-style="normal" stroke-width="7" transform="matrix(1,0,0,1,1485,1050)" stroke="#000000" font-weight="400" fill="none" font-family="Sans Serif">
    <path d="M6,360 C6,368.837 -1.16344,376 -10,376 C-18.8366,376 -26,368.837 -26,360 C-26,351.163 -18.8366,344 -10,344 C-1.16344,344 6,351.163 6,360 " vector-effect="none" fill-rule="evenodd"/>
   </g>
   <g stroke-opacity="1" stroke-linecap="round" font-size="31.75" stroke-linejoin="bevel" font-style="normal" stroke-width="7" transform="matrix(1,0,0,1,1485,1050)" stroke="#000000" font-weight="400" fill="none" font-family="Sans Serif">
    <path d="M6,190 C6,198.837 -1.16344,206 -10,206 C-18.8366,206 -26,198.837 -26,190 C-26,181.163 -18.8366,174 -10,174 C-1.16344,174 6,181.163 6,190 " vector-effect="none" fill-rule="evenodd"/>
   </g>
   <g stroke-opacity="1" stroke-linecap="round" font-size="31.75" stroke-linejoin="bevel" font-style="normal" stroke-width="7" transform="matrix(1,0,0,1,1485,1050)" stroke="#000000" font-weight="400" fill="none" font-family="Sans Serif">
    <path d="M-110,65 C-110,76.0457 -118.954,85 -130,85 C-141.046,85 -150,76.0457 -150,65 C-150,53.9543 -141.046,45 -130,45 C-118.954,45 -110,53.9543 -110,65 " vector-effect="none" fill-rule="evenodd"/>
   </g>
   <g stroke-opacity="1" stroke-linecap="round" font-size="31.75" stroke-linejoin="bevel" font-style="normal" stroke-width="7" transform="matrix(1,0,0,1,1485,1050)" stroke="#000000" font-weight="400" fill="none" font-family="Sans Serif">
    <path d="M-110,-425 C-110,-413.954 -118.954,-405 -130,-405 C-141.046,-405 -150,-413.954 -150,-425 C-150,-436.046 -141.046,-445 -130,-445 C-118.954,-445 -110,-436.046 -110,-425 " vector-effect="none" fill-rule="evenodd"/>
   </g>
   <g stroke-opacity="1" stroke-linecap="round" font-size="31.75" stroke-linejoin="bevel" font-style="normal" stroke-width="7" transform="matrix(1,0,0,1,1485,1050)" stroke="#000000" font-weight="400" fill="none" font-family="Sans Serif">
    <path d="M775,500 L800,500" vector-effect="none" fill-rule="evenodd"/>
   </g>
   <g stroke-opacity="1" stroke-linecap="round" font-size="31.75" stroke-linejoin="bevel" font-style="normal" stroke-width="7" transform="matrix(1,0,0,1,1485,1050)" stroke="#000000" font-weight="400" fill="none" font-family="Sans Serif">
    <path d="M800,500 L800,394" vector-effect="none" fill-rule="evenodd"/>
   </g>
   <g stroke-opacity="1" stroke-linecap="round" font-size="31.75" stroke-linejoin="bevel" font-style="normal" stroke-width="7" transform="matrix(1,0,0,1,1485,1050)" stroke="#000000" font-weight="400" fill="none" font-family="Sans Serif">
    <path d="M775,394 L800,394" vector-effect="none" fill-rule="evenodd"/>
   </g>
   <g stroke-opacity="1" stroke-linecap="round" font-size="31.75" stroke-linejoin="bevel" font-style="normal" stroke-width="7" transform="matrix(1,0,0,1,1485,1050)" stroke="#000000" font-weight="400" fill="none" font-family="Sans Serif">
    <path d="M775,94 L800,94" vector-effect="none" fill-rule="evenodd"/>
   </g>
   <g stroke-opacity="1" stroke-linecap="round" font-size="31.75" stroke-linejoin="bevel" font-style="normal" stroke-width="7" transform="matrix(1,0,0,1,1485,1050)" stroke="#000000" font-weight="400" fill="none" font-family="Sans Serif">
    <path d="M800,94 L800,0" vector-effect="none" fill-rule="evenodd"/>
   </g>
   <g stroke-opacity="1" stroke-linecap="round" font-size="31.75" stroke-linejoin="bevel" font-style="normal" stroke-width="7" transform="matrix(1,0,0,1,1485,1050)" stroke="#000000" font-weight="400" fill="none" font-family="Sans Serif">
    <path d="M775,0 L800,0" vector-effect="none" fill-rule="evenodd"/>
   </g>
   <g stroke-opacity="1" stroke-linecap="round" font-size="31.75" stroke-linejoin="bevel" font-style="normal" stroke-width="7" transform="matrix(1,0,0,1,1485,1050)" stroke="#000000" font-weight="400" fill="none" font-family="Sans Serif">
    <path d="M-800,-500 L-775,-500" vector-effect="none" fill-rule="evenodd"/>
   </g>
   <g stroke-opacity="1" stroke-linecap="round" font-size="31.75" stroke-linejoin="bevel" font-style="normal" stroke-width="7" transform="matrix(1,0,0,1,1485,1050)" stroke="#000000" font-weight="400" fill="none" font-family="Sans Serif">
    <path d="M-800,-362 L-800,-500" vector-effect="none" fill-rule="evenodd"/>
   </g>
   <g stroke-opacity="1" stroke-linecap="round" font-size="31.75" stroke-linejoin="bevel" font-style="normal" stroke-width="7" transform="matrix(1,0,0,1,1485,1050)" stroke="#000000" font-weight="400" fill="none" font-family="Sans Serif">
    <path d="M-800,-362 L-775,-362" vector-effect="none" fill-rule="evenodd"/>
   </g>
   <g stroke-opacity="1" stroke-linecap="round" font-size="31.75" stroke-linejoin="bevel" font-style="normal" stroke-width="7" transform="matrix(1,0,0,1,1485,1050)" stroke="#000000" font-weight="400" fill="none" font-family="Sans Serif">
    <path d="M-800,-2 L-775,-2" vector-effect="none" fill-rule="evenodd"/>
   </g>
   <g stroke-opacity="1" stroke-linecap="round" font-size="31.75" stroke-linejoin="bevel" font-style="normal" stroke-width="7" transform="matrix(1,0,0,1,1485,1050)" stroke="#000000" font-weight="400" fill="none" font-family="Sans Serif">
    <path d="M-800,144 L-800,-2" vector-effect="none" fill-rule="evenodd"/>
   </g>
   <g stroke-opacity="1" stroke-linecap="round" font-size="31.75" stroke-linejoin="bevel" font-style="normal" stroke-width="7" transform="matrix(1,0,0,1,1485,1050)" stroke="#000000" font-weight="400" fill="none" font-family="Sans Serif">
    <path d="M-800,144 L-775,144" vector-effect="none" fill-rule="evenodd"/>
   </g>
  </g>
 </g>
</svg>
