999
FreeCAD v0.20 29410 (Git)
  0
SECTION
  2
HEADER
  9
$ACADVER
  1
AC1014
  9
$ACADMAINTVER
 70
     9
  9
$DWGCODEPAGE
  3
ANSI_1252
  9
$TEXTSTYLE
  7
STANDARD
  9
$DIMSTYLE
  2
STANDARD
  9
$DIMTXSTY
  7
STANDARD
  9
$CMLSTYLE
  2
STANDARD
  9
$LUNITS
 70
2
  9
$INSUNITS
 70
4
  9
$PEXTMAX
 10
50
 20
50
 30
50
  9
$PEXTMIN
 10
0
 20
0
 30
0
  9
$HANDSEED
  5
FFFF
  0
ENDSEC
  0
SECTION
  2
CLASSES
  0
CLASS
  1
ACDBDICTIONARYWDFLT
  2
AcDbDictionaryWithDefault
  3
ObjectDBX Classes
 90
        0
280
     0
281
     0
  0
CLASS
  1
XRECORD
  2
AcDbXrecord
  3
ObjectDBX Classes
 90
        0
280
     0
281
     0
  0
CLASS
  1
LWPOLYLINE
  2
AcDbPolyline
  3
ObjectDBX Classes
 90
        0
280
     0
281
     1
  0
ENDSEC
  0
SECTION
  2
TABLES
  0
TABLE
  2
VPORT
  5
20
330
0
100
AcDbSymbolTable
 70
     1
  0
VPORT
  5
21
330
20
100
AcDbSymbolTableRecord
100
AcDbViewportTableRecord
  2
*ACTIVE
 70
     0
  0
ENDTAB
  0
TABLE
  2
LTYPE
  5
22
330
0
100
AcDbSymbolTable
 70
     1
  0
LTYPE
  5
23
330
21
100
AcDbSymbolTableRecord
100
AcDbLinetypeTableRecord
  2
BYBLOCK
 70
     0
  3

 72
    65
 73
     0
 40
0.0
  0
LTYPE
  5
24
330
21
100
AcDbSymbolTableRecord
100
AcDbLinetypeTableRecord
  2
BYLAYER
 70
     0
  3

 72
    65
 73
     0
 40
0.0
  0
LTYPE
  5
25
330
21
100
AcDbSymbolTableRecord
100
AcDbLinetypeTableRecord
  2
CONTINUOUS
 70
     0
  3
Solid line
 72
    65
 73
     0
 40
0.0
  0
ENDTAB
  0
TABLE
  2
LAYER
  5
A26
330
0
100
AcDbSymbolTable
 70
3
  0
LAYER
  5
A27
330
A26
100
AcDbSymbolTableRecord
100
AcDbLayerTableRecord
  2
0
 70
   0
 62
   7
  6
CONTINUOUS
  0
LAYER
  5
A28
330
A26
100
AcDbSymbolTableRecord
100
AcDbLayerTableRecord
  2
none
 70
    0
 62
    7
  6
CONTINUOUS
  0
LAYER
  5
A29
330
A26
100
AcDbSymbolTableRecord
100
AcDbLayerTableRecord
  2
Fusion105
 70
    0
 62
    7
  6
CONTINUOUS
  0
ENDTAB
  0
TABLE
  2
STYLE
  5
70
330
0
100
AcDbSymbolTable
 70
     2
  0
STYLE
  5
71
330
70
100
AcDbSymbolTableRecord
100
AcDbTextStyleTableRecord
  2
STANDARD
 70
     0
 40
0.0
 41
1.0
 50
0.0
 71
     0
 42
2.5
  3
arial.ttf
  4

  0
STYLE
  5
72
330
70
100
AcDbSymbolTableRecord
100
AcDbTextStyleTableRecord
  2
ANNOTATIVE
 70
     0
 40
0.0
 41
1.0
 50
0.0
 71
     0
 42
2.5
  3
arial.ttf
  4

  0
ENDTAB
  0
TABLE
  2
VIEW
  5
73
330
0
100
AcDbSymbolTable
 70
     0
  0
ENDTAB
  0
TABLE
  2
UCS
  5
74
330
0
100
AcDbSymbolTable
 70
     0
  0
ENDTAB
  0
TABLE
  2
APPID
  5
75
330
0
100
AcDbSymbolTable
 70
     2
  0
APPID
  5
76
330
75
100
AcDbSymbolTableRecord
100
AcDbRegAppTableRecord
  2
ACAD
 70
     0
  0
APPID
  5
77
330
75
100
AcDbSymbolTableRecord
100
AcDbRegAppTableRecord
  2
ACADANNOTATIVE
 70
     0
  0
ENDTAB
  0
TABLE
  2
DIMSTYLE
  5
78
330
0
100
AcDbSymbolTable
 70
     2
  0
DIMSTYLE
105
79
330
78
100
AcDbSymbolTableRecord
100
AcDbDimStyleTableRecord
  2
STANDARD
 70
     0
  3

  4

  5

  6

  7

 40
0.0
 41
2.5
 42
0.625
 43
3.75
 44
1.25
 45
0.0
 46
0.0
 47
0.0
 48
0.0
140
2.5
141
2.5
142
0.0
143
0.03937007874016
144
1.0
145
0.0
146
1.0
147
0.625
 71
     0
 72
     0
 73
     0
 74
     0
 75
     0
 76
     0
 77
     1
 78
     8
170
     0
171
     3
172
     1
173
     0
174
     0
175
     0
176
     0
177
     0
178
     0
270
     2
271
     2
272
     2
273
     2
274
     3
340
71
275
     0
280
     0
281
     0
282
     0
283
     0
284
     8
285
     0
286
     0
287
     3
288
     0
  0
ENDTAB
  0
TABLE
  2
BLOCK_RECORD
  5
A01
330
0
100
AcDbSymbolTable
  70
5
  0
BLOCK_RECORD
  5
A02
330
A01
100
AcDbSymbolTableRecord
100
AcDbBlockTableRecord
  2
*MODEL_SPACE
  0
BLOCK_RECORD
  5
A03
330
A01
100
AcDbSymbolTableRecord
100
AcDbBlockTableRecord
  2
*PAPER_SPACE
  0
ENDTAB
  0
ENDSEC
  0
SECTION
  2
BLOCKS
  0
BLOCK
  5
A04
330
A02
100
AcDbEntity
  8
0
100
AcDbBlockBegin
  2
*MODEL_SPACE
 70
   0
 10
0
 20
0
 30
0
  3
*MODEL_SPACE
  1
 
  0
ENDBLK
  5
A05
330
A02
100
AcDbEntity
  8
0
100
AcDbBlockEnd
  0
BLOCK
  5
A06
330
A03
100
AcDbEntity
 67
1
  8
0
100
AcDbBlockBegin
  2
*PAPER_SPACE
 70
   0
 10
0
 20
0
 30
0
  3
*PAPER_SPACE
  1
 
  0
ENDBLK
  5
A07
330
A03
100
AcDbEntity
 67
    1
  8
0
100
AcDbBlockEnd
  0
ENDSEC
  0
SECTION
  2
ENTITIES
  0
LINE
  5
A08
330
A02
100
AcDbEntity
  8
Fusion105
100
AcDbLine
 10
-20
 20
-241.336
 30
-160
 11
-20
 21
-241.336
 31
-132
  0
ARC
  5
A09
330
A02
100
AcDbEntity
  8
Fusion105
100
AcDbCircle
 10
0
 20
-150
 30
-160
 40
93.5
100
AcDbArc
 50
-102.351
 51
-77.6488
  0
ARC
  5
A0A
330
A02
100
AcDbEntity
  8
Fusion105
100
AcDbCircle
 10
0
 20
-150
 30
-132
 40
93.5
100
AcDbArc
 50
-102.351
 51
-77.6488
  0
LINE
  5
A0B
330
A02
100
AcDbEntity
  8
Fusion105
100
AcDbLine
 10
20
 20
-241.336
 30
-160
 11
20
 21
-241.336
 31
-132
  0
SPLINE
  5
A0C
330
A02
100
AcDbEntity
  8
Fusion105
100
AcDbSpline
210
0
220
0
230
1
 70
9
 71
3
 72
35
 73
31
 74
0
 40
0
 40
0
 40
0
 40
0
 40
0.153611
 40
0.153611
 40
0.153611
 40
0.219643
 40
0.219643
 40
0.219643
 40
0.285676
 40
0.285676
 40
0.285676
 40
0.42164
 40
0.42164
 40
0.42164
 40
0.589544
 40
0.589544
 40
0.589544
 40
0.714926
 40
0.714926
 40
0.714926
 40
0.7761
 40
0.7761
 40
0.7761
 40
0.837274
 40
0.837274
 40
0.837274
 40
0.918637
 40
0.918637
 40
0.918637
 40
1
 40
1
 40
1
 40
1
 10
2
 20
-243.479
 30
-147.25
 10
1.99856
 20
-243.478
 30
-146.697
 10
1.7741
 20
-243.484
 30
-146.127
 10
1.27485
 20
-243.491
 30
-145.709
 10
1.06048
 20
-243.494
 30
-145.53
 10
0.77879
 20
-243.497
 30
-145.379
 10
0.466845
 20
-243.499
 30
-145.305
 10
0.155502
 20
-243.5
 30
-145.23
 10
-0.183953
 20
-243.5
 30
-145.231
 10
-0.49738
 20
-243.499
 30
-145.313
 10
-1.14647
 20
-243.495
 30
-145.482
 10
-1.5905
 20
-243.487
 30
-145.929
 10
-1.80965
 20
-243.482
 30
-146.398
 10
-2.08085
 20
-243.477
 30
-146.982
 10
-2.06371
 20
-243.477
 30
-147.641
 10
-1.75261
 20
-243.484
 30
-148.214
 10
-1.52067
 20
-243.488
 30
-148.638
 10
-1.09379
 20
-243.495
 30
-149.033
 10
-0.49738
 20
-243.499
 30
-149.187
 10
-0.20786
 20
-243.5
 30
-149.262
 10
0.105921
 20
-243.5
 30
-149.27
 10
0.398563
 20
-243.499
 30
-149.21
 10
0.691613
 20
-243.498
 30
-149.151
 10
0.961879
 20
-243.495
 30
-149.024
 10
1.17557
 20
-243.493
 30
-148.868
 10
1.46041
 20
-243.489
 30
-148.661
 10
1.66571
 20
-243.485
 30
-148.399
 10
1.80041
 20
-243.483
 30
-148.121
 10
1.93414
 20
-243.48
 30
-147.839
 10
2.00067
 20
-243.479
 30
-147.549
 10
2
 20
-243.479
 30
-147.25
  0
LINE
  5
A0D
330
A02
100
AcDbEntity
  8
Fusion105
100
AcDbLine
 10
-20
 20
-241.336
 30
-160
 11
-20
 21
-241.336
 31
-132
  0
LINE
  5
A0E
330
A02
100
AcDbEntity
  8
Fusion105
100
AcDbLine
 10
-20
 20
-237.336
 30
-160
 11
-20
 21
-237.336
 31
-132
  0
LINE
  5
A0F
330
A02
100
AcDbEntity
  8
Fusion105
100
AcDbLine
 10
-20
 20
-241.336
 30
-160
 11
-20
 21
-237.336
 31
-160
  0
LINE
  5
A10
330
A02
100
AcDbEntity
  8
Fusion105
100
AcDbLine
 10
-20
 20
-241.336
 30
-132
 11
-20
 21
-237.336
 31
-132
  0
ARC
  5
A11
330
A02
100
AcDbEntity
  8
Fusion105
100
AcDbCircle
 10
0
 20
-150
 30
-160
 40
93.5
100
AcDbArc
 50
-102.351
 51
-77.6488
  0
LINE
  5
A12
330
A02
100
AcDbEntity
  8
Fusion105
100
AcDbLine
 10
20
 20
-237.336
 30
-160
 11
20
 21
-241.336
 31
-160
  0
LINE
  5
A13
330
A02
100
AcDbEntity
  8
Fusion105
100
AcDbLine
 10
-20
 20
-237.336
 30
-160
 11
20
 21
-237.336
 31
-160
  0
LINE
  5
A14
330
A02
100
AcDbEntity
  8
Fusion105
100
AcDbLine
 10
-20
 20
-241.336
 30
-160
 11
-20
 21
-237.336
 31
-160
  0
ARC
  5
A15
330
A02
100
AcDbEntity
  8
Fusion105
100
AcDbCircle
 10
0
 20
-150
 30
-132
 40
93.5
100
AcDbArc
 50
-102.351
 51
-77.6488
  0
LINE
  5
A16
330
A02
100
AcDbEntity
  8
Fusion105
100
AcDbLine
 10
20
 20
-237.336
 30
-132
 11
20
 21
-241.336
 31
-132
  0
LINE
  5
A17
330
A02
100
AcDbEntity
  8
Fusion105
100
AcDbLine
 10
-20
 20
-237.336
 30
-132
 11
20
 21
-237.336
 31
-132
  0
LINE
  5
A18
330
A02
100
AcDbEntity
  8
Fusion105
100
AcDbLine
 10
-20
 20
-241.336
 30
-132
 11
-20
 21
-237.336
 31
-132
  0
LINE
  5
A19
330
A02
100
AcDbEntity
  8
Fusion105
100
AcDbLine
 10
20
 20
-237.336
 30
-160
 11
20
 21
-237.336
 31
-132
  0
LINE
  5
A1A
330
A02
100
AcDbEntity
  8
Fusion105
100
AcDbLine
 10
20
 20
-241.336
 30
-160
 11
20
 21
-241.336
 31
-132
  0
LINE
  5
A1B
330
A02
100
AcDbEntity
  8
Fusion105
100
AcDbLine
 10
20
 20
-237.336
 30
-160
 11
20
 21
-241.336
 31
-160
  0
LINE
  5
A1C
330
A02
100
AcDbEntity
  8
Fusion105
100
AcDbLine
 10
20
 20
-237.336
 30
-132
 11
20
 21
-241.336
 31
-132
  0
SPLINE
  5
A1D
330
A02
100
AcDbEntity
  8
Fusion105
100
AcDbSpline
210
0
220
0
230
1
 70
9
 71
3
 72
35
 73
31
 74
0
 40
0
 40
0
 40
0
 40
0
 40
0.153611
 40
0.153611
 40
0.153611
 40
0.219643
 40
0.219643
 40
0.219643
 40
0.285676
 40
0.285676
 40
0.285676
 40
0.42164
 40
0.42164
 40
0.42164
 40
0.589544
 40
0.589544
 40
0.589544
 40
0.714926
 40
0.714926
 40
0.714926
 40
0.7761
 40
0.7761
 40
0.7761
 40
0.837274
 40
0.837274
 40
0.837274
 40
0.918637
 40
0.918637
 40
0.918637
 40
1
 40
1
 40
1
 40
1
 10
2
 20
-243.479
 30
-147.25
 10
1.99856
 20
-243.478
 30
-146.697
 10
1.7741
 20
-243.484
 30
-146.127
 10
1.27485
 20
-243.491
 30
-145.709
 10
1.06048
 20
-243.494
 30
-145.53
 10
0.77879
 20
-243.497
 30
-145.379
 10
0.466845
 20
-243.499
 30
-145.305
 10
0.155502
 20
-243.5
 30
-145.23
 10
-0.183953
 20
-243.5
 30
-145.231
 10
-0.49738
 20
-243.499
 30
-145.313
 10
-1.14647
 20
-243.495
 30
-145.482
 10
-1.5905
 20
-243.487
 30
-145.929
 10
-1.80965
 20
-243.482
 30
-146.398
 10
-2.08085
 20
-243.477
 30
-146.982
 10
-2.06371
 20
-243.477
 30
-147.641
 10
-1.75261
 20
-243.484
 30
-148.214
 10
-1.52067
 20
-243.488
 30
-148.638
 10
-1.09379
 20
-243.495
 30
-149.033
 10
-0.49738
 20
-243.499
 30
-149.187
 10
-0.20786
 20
-243.5
 30
-149.262
 10
0.105921
 20
-243.5
 30
-149.27
 10
0.398563
 20
-243.499
 30
-149.21
 10
0.691613
 20
-243.498
 30
-149.151
 10
0.961879
 20
-243.495
 30
-149.024
 10
1.17557
 20
-243.493
 30
-148.868
 10
1.46041
 20
-243.489
 30
-148.661
 10
1.66571
 20
-243.485
 30
-148.399
 10
1.80041
 20
-243.483
 30
-148.121
 10
1.93414
 20
-243.48
 30
-147.839
 10
2.00067
 20
-243.479
 30
-147.549
 10
2
 20
-243.479
 30
-147.25
  0
LINE
  5
A1E
330
A02
100
AcDbEntity
  8
Fusion105
100
AcDbLine
 10
2
 20
-243.479
 30
-147.25
 11
2
 21
-248
 31
-147.25
  0
CIRCLE
  5
A1F
330
A02
100
AcDbEntity
  8
Fusion105
100
AcDbCircle
 10
0
 20
-248
 40
2
  0
LINE
  5
A20
330
A02
100
AcDbEntity
  8
Fusion105
100
AcDbLine
 10
2
 20
-243.479
 30
-147.25
 11
2
 21
-248
 31
-147.25
  0
LINE
  5
A21
330
A02
100
AcDbEntity
  8
Fusion105
100
AcDbLine
 10
-20
 20
-237.336
 30
-160
 11
-20
 21
-237.336
 31
-132
  0
LINE
  5
A22
330
A02
100
AcDbEntity
  8
Fusion105
100
AcDbLine
 10
20
 20
-237.336
 30
-160
 11
20
 21
-237.336
 31
-132
  0
LINE
  5
A23
330
A02
100
AcDbEntity
  8
Fusion105
100
AcDbLine
 10
-20
 20
-237.336
 30
-160
 11
20
 21
-237.336
 31
-160
  0
LINE
  5
A24
330
A02
100
AcDbEntity
  8
Fusion105
100
AcDbLine
 10
-20
 20
-237.336
 30
-132
 11
20
 21
-237.336
 31
-132
  0
CIRCLE
  5
A25
330
A02
100
AcDbEntity
  8
Fusion105
100
AcDbCircle
 10
0
 20
-248
 40
2
  0
ENDSEC
  0
SECTION
  2
OBJECTS
  0
DICTIONARY
  5
F000
330
0
100
AcDbDictionary
  3
ACAD_GROUP
350
F001
  0
DICTIONARY
  5
F001
330
F000
100
AcDbDictionary
  0
ENDSEC
  0
EOF